<?xml version="1.0" encoding="utf-8" standalone="no"?>
<!DOCTYPE svg PUBLIC "-//W3C//DTD SVG 1.1//EN"
  "http://www.w3.org/Graphics/SVG/1.1/DTD/svg11.dtd">
<!-- Created with matplotlib (http://matplotlib.org/) -->
<svg height="275.128pt" version="1.1" viewBox="0 0 456.614286 275.128" width="456.614286pt" xmlns="http://www.w3.org/2000/svg" xmlns:xlink="http://www.w3.org/1999/xlink">
 <defs>
  <style type="text/css">
*{stroke-linecap:butt;stroke-linejoin:round;}
  </style>
 </defs>
 <g id="figure_1">
  <g id="patch_1">
   <path d="M 0 275.128 
L 456.614286 275.128 
L 456.614286 -0 
L 0 -0 
z
" style="fill:none;"/>
  </g>
  <g id="axes_1">
   <g id="table_1">
    <g id="patch_2">
     <path d="M 7.1 36.092 
L 191.24 36.092 
L 191.24 7.1 
L 7.1 7.1 
z
" style="fill:#ecf7f9;"/>
    </g>
    <g id="text_1">
     <!-- Location is box center? -->
     <defs>
      <path d="M 9.1875 72.90625 
L 27.984375 72.90625 
L 27.984375 14.203125 
L 60.984375 14.203125 
L 60.984375 0 
L 9.1875 0 
z
" id="DejaVuSans-Bold-4c"/>
      <path d="M 34.421875 43.5 
Q 28.609375 43.5 25.5625 39.328125 
Q 22.515625 35.15625 22.515625 27.296875 
Q 22.515625 19.4375 25.5625 15.25 
Q 28.609375 11.078125 34.421875 11.078125 
Q 40.140625 11.078125 43.15625 15.25 
Q 46.1875 19.4375 46.1875 27.296875 
Q 46.1875 35.15625 43.15625 39.328125 
Q 40.140625 43.5 34.421875 43.5 
z
M 34.421875 56 
Q 48.53125 56 56.46875 48.375 
Q 64.40625 40.765625 64.40625 27.296875 
Q 64.40625 13.8125 56.46875 6.1875 
Q 48.53125 -1.421875 34.421875 -1.421875 
Q 20.265625 -1.421875 12.28125 6.1875 
Q 4.296875 13.8125 4.296875 27.296875 
Q 4.296875 40.765625 12.28125 48.375 
Q 20.265625 56 34.421875 56 
z
" id="DejaVuSans-Bold-6f"/>
      <path d="M 52.59375 52.984375 
L 52.59375 38.71875 
Q 49.03125 41.15625 45.4375 42.328125 
Q 41.84375 43.5 37.984375 43.5 
Q 30.671875 43.5 26.59375 39.234375 
Q 22.515625 34.96875 22.515625 27.296875 
Q 22.515625 19.625 26.59375 15.34375 
Q 30.671875 11.078125 37.984375 11.078125 
Q 42.09375 11.078125 45.78125 12.296875 
Q 49.46875 13.53125 52.59375 15.921875 
L 52.59375 1.609375 
Q 48.484375 0.09375 44.265625 -0.65625 
Q 40.046875 -1.421875 35.796875 -1.421875 
Q 21 -1.421875 12.640625 6.171875 
Q 4.296875 13.765625 4.296875 27.296875 
Q 4.296875 40.828125 12.640625 48.40625 
Q 21 56 35.796875 56 
Q 40.09375 56 44.265625 55.25 
Q 48.4375 54.5 52.59375 52.984375 
z
" id="DejaVuSans-Bold-63"/>
      <path d="M 32.90625 24.609375 
Q 27.4375 24.609375 24.671875 22.75 
Q 21.921875 20.90625 21.921875 17.28125 
Q 21.921875 13.96875 24.140625 12.078125 
Q 26.375 10.203125 30.328125 10.203125 
Q 35.25 10.203125 38.625 13.734375 
Q 42 17.28125 42 22.609375 
L 42 24.609375 
z
M 59.625 31.203125 
L 59.625 0 
L 42 0 
L 42 8.109375 
Q 38.484375 3.125 34.078125 0.84375 
Q 29.6875 -1.421875 23.390625 -1.421875 
Q 14.890625 -1.421875 9.59375 3.53125 
Q 4.296875 8.5 4.296875 16.40625 
Q 4.296875 26.03125 10.90625 30.515625 
Q 17.53125 35.015625 31.6875 35.015625 
L 42 35.015625 
L 42 36.375 
Q 42 40.53125 38.71875 42.453125 
Q 35.453125 44.390625 28.515625 44.390625 
Q 22.90625 44.390625 18.0625 43.265625 
Q 13.234375 42.140625 9.078125 39.890625 
L 9.078125 53.21875 
Q 14.703125 54.59375 20.359375 55.296875 
Q 26.03125 56 31.6875 56 
Q 46.484375 56 53.046875 50.171875 
Q 59.625 44.34375 59.625 31.203125 
z
" id="DejaVuSans-Bold-61"/>
      <path d="M 27.484375 70.21875 
L 27.484375 54.6875 
L 45.515625 54.6875 
L 45.515625 42.1875 
L 27.484375 42.1875 
L 27.484375 19 
Q 27.484375 15.1875 29 13.84375 
Q 30.515625 12.5 35.015625 12.5 
L 44 12.5 
L 44 0 
L 29 0 
Q 18.65625 0 14.328125 4.3125 
Q 10.015625 8.640625 10.015625 19 
L 10.015625 42.1875 
L 1.3125 42.1875 
L 1.3125 54.6875 
L 10.015625 54.6875 
L 10.015625 70.21875 
z
" id="DejaVuSans-Bold-74"/>
      <path d="M 8.40625 54.6875 
L 25.875 54.6875 
L 25.875 0 
L 8.40625 0 
z
M 8.40625 75.984375 
L 25.875 75.984375 
L 25.875 61.71875 
L 8.40625 61.71875 
z
" id="DejaVuSans-Bold-69"/>
      <path d="M 63.375 33.296875 
L 63.375 0 
L 45.796875 0 
L 45.796875 5.421875 
L 45.796875 25.484375 
Q 45.796875 32.5625 45.484375 35.25 
Q 45.171875 37.9375 44.390625 39.203125 
Q 43.359375 40.921875 41.59375 41.875 
Q 39.84375 42.828125 37.59375 42.828125 
Q 32.125 42.828125 29 38.59375 
Q 25.875 34.375 25.875 26.90625 
L 25.875 0 
L 8.40625 0 
L 8.40625 54.6875 
L 25.875 54.6875 
L 25.875 46.6875 
Q 29.828125 51.46875 34.265625 53.734375 
Q 38.71875 56 44.09375 56 
Q 53.5625 56 58.46875 50.1875 
Q 63.375 44.390625 63.375 33.296875 
z
" id="DejaVuSans-Bold-6e"/>
      <path id="DejaVuSans-Bold-20"/>
      <path d="M 51.125 52.984375 
L 51.125 39.703125 
Q 45.515625 42.046875 40.28125 43.21875 
Q 35.0625 44.390625 30.421875 44.390625 
Q 25.4375 44.390625 23.015625 43.140625 
Q 20.609375 41.890625 20.609375 39.3125 
Q 20.609375 37.203125 22.4375 36.078125 
Q 24.265625 34.96875 29 34.421875 
L 32.078125 33.984375 
Q 45.515625 32.28125 50.140625 28.375 
Q 54.78125 24.46875 54.78125 16.109375 
Q 54.78125 7.375 48.328125 2.96875 
Q 41.890625 -1.421875 29.109375 -1.421875 
Q 23.6875 -1.421875 17.890625 -0.5625 
Q 12.109375 0.296875 6 2 
L 6 15.28125 
Q 11.234375 12.75 16.71875 11.46875 
Q 22.21875 10.203125 27.875 10.203125 
Q 33.015625 10.203125 35.59375 11.609375 
Q 38.1875 13.03125 38.1875 15.828125 
Q 38.1875 18.171875 36.40625 19.3125 
Q 34.625 20.453125 29.296875 21.09375 
L 26.21875 21.484375 
Q 14.546875 22.953125 9.859375 26.90625 
Q 5.171875 30.859375 5.171875 38.921875 
Q 5.171875 47.609375 11.125 51.796875 
Q 17.09375 56 29.390625 56 
Q 34.234375 56 39.546875 55.265625 
Q 44.875 54.546875 51.125 52.984375 
z
" id="DejaVuSans-Bold-73"/>
      <path d="M 37.5 11.28125 
Q 43.109375 11.28125 46.0625 15.375 
Q 49.03125 19.484375 49.03125 27.296875 
Q 49.03125 35.109375 46.0625 39.203125 
Q 43.109375 43.3125 37.5 43.3125 
Q 31.890625 43.3125 28.875 39.1875 
Q 25.875 35.0625 25.875 27.296875 
Q 25.875 19.53125 28.875 15.40625 
Q 31.890625 11.28125 37.5 11.28125 
z
M 25.875 46.6875 
Q 29.5 51.46875 33.890625 53.734375 
Q 38.28125 56 44 56 
Q 54.109375 56 60.59375 47.96875 
Q 67.09375 39.9375 67.09375 27.296875 
Q 67.09375 14.65625 60.59375 6.609375 
Q 54.109375 -1.421875 44 -1.421875 
Q 38.28125 -1.421875 33.890625 0.84375 
Q 29.5 3.125 25.875 7.90625 
L 25.875 0 
L 8.40625 0 
L 8.40625 75.984375 
L 25.875 75.984375 
z
" id="DejaVuSans-Bold-62"/>
      <path d="M 22.21875 27.984375 
L 2.484375 54.6875 
L 21 54.6875 
L 32.171875 38.484375 
L 43.5 54.6875 
L 62.015625 54.6875 
L 42.28125 28.078125 
L 62.984375 0 
L 44.484375 0 
L 32.171875 17.28125 
L 20.015625 0 
L 1.515625 0 
z
" id="DejaVuSans-Bold-78"/>
      <path d="M 62.984375 27.484375 
L 62.984375 22.515625 
L 22.125 22.515625 
Q 22.75 16.359375 26.5625 13.28125 
Q 30.375 10.203125 37.203125 10.203125 
Q 42.71875 10.203125 48.5 11.84375 
Q 54.296875 13.484375 60.40625 16.796875 
L 60.40625 3.328125 
Q 54.203125 0.984375 48 -0.21875 
Q 41.796875 -1.421875 35.59375 -1.421875 
Q 20.75 -1.421875 12.515625 6.125 
Q 4.296875 13.671875 4.296875 27.296875 
Q 4.296875 40.671875 12.375 48.328125 
Q 20.453125 56 34.625 56 
Q 47.515625 56 55.25 48.234375 
Q 62.984375 40.484375 62.984375 27.484375 
z
M 45.015625 33.296875 
Q 45.015625 38.28125 42.109375 41.328125 
Q 39.203125 44.390625 34.515625 44.390625 
Q 29.4375 44.390625 26.265625 41.53125 
Q 23.09375 38.671875 22.3125 33.296875 
z
" id="DejaVuSans-Bold-65"/>
      <path d="M 49.03125 39.796875 
Q 46.734375 40.875 44.453125 41.375 
Q 42.1875 41.890625 39.890625 41.890625 
Q 33.15625 41.890625 29.515625 37.5625 
Q 25.875 33.25 25.875 25.203125 
L 25.875 0 
L 8.40625 0 
L 8.40625 54.6875 
L 25.875 54.6875 
L 25.875 45.703125 
Q 29.25 51.078125 33.609375 53.53125 
Q 37.984375 56 44.09375 56 
Q 44.96875 56 45.984375 55.921875 
Q 47.015625 55.859375 48.96875 55.609375 
z
" id="DejaVuSans-Bold-72"/>
      <path d="M 34.625 24.609375 
L 17 24.609375 
L 17 27 
Q 17 31 18.609375 34.09375 
Q 20.21875 37.203125 25.390625 42 
L 28.515625 44.828125 
Q 31.296875 47.359375 32.59375 49.609375 
Q 33.890625 51.859375 33.890625 54.109375 
Q 33.890625 57.515625 31.546875 59.4375 
Q 29.203125 61.375 25 61.375 
Q 21.046875 61.375 16.453125 59.734375 
Q 11.859375 58.109375 6.890625 54.890625 
L 6.890625 70.21875 
Q 12.796875 72.265625 17.671875 73.234375 
Q 22.5625 74.21875 27.09375 74.21875 
Q 39.015625 74.21875 45.265625 69.359375 
Q 51.515625 64.5 51.515625 55.171875 
Q 51.515625 50.390625 49.609375 46.609375 
Q 47.703125 42.828125 43.109375 38.484375 
L 39.984375 35.6875 
Q 36.671875 32.671875 35.640625 30.828125 
Q 34.625 29 34.625 26.8125 
z
M 17 17.390625 
L 34.625 17.390625 
L 34.625 0 
L 17 0 
z
" id="DejaVuSans-Bold-3f"/>
     </defs>
     <g transform="translate(27.371797 24.631312)scale(0.11 -0.11)">
      <use xlink:href="#DejaVuSans-Bold-4c"/>
      <use x="63.720703" xlink:href="#DejaVuSans-Bold-6f"/>
      <use x="132.421875" xlink:href="#DejaVuSans-Bold-63"/>
      <use x="191.699219" xlink:href="#DejaVuSans-Bold-61"/>
      <use x="259.179688" xlink:href="#DejaVuSans-Bold-74"/>
      <use x="306.982422" xlink:href="#DejaVuSans-Bold-69"/>
      <use x="341.259766" xlink:href="#DejaVuSans-Bold-6f"/>
      <use x="409.960938" xlink:href="#DejaVuSans-Bold-6e"/>
      <use x="481.152344" xlink:href="#DejaVuSans-Bold-20"/>
      <use x="515.966797" xlink:href="#DejaVuSans-Bold-69"/>
      <use x="550.244141" xlink:href="#DejaVuSans-Bold-73"/>
      <use x="609.765625" xlink:href="#DejaVuSans-Bold-20"/>
      <use x="644.580078" xlink:href="#DejaVuSans-Bold-62"/>
      <use x="716.162109" xlink:href="#DejaVuSans-Bold-6f"/>
      <use x="784.863281" xlink:href="#DejaVuSans-Bold-78"/>
      <use x="849.365234" xlink:href="#DejaVuSans-Bold-20"/>
      <use x="884.179688" xlink:href="#DejaVuSans-Bold-63"/>
      <use x="943.457031" xlink:href="#DejaVuSans-Bold-65"/>
      <use x="1011.279297" xlink:href="#DejaVuSans-Bold-6e"/>
      <use x="1082.470703" xlink:href="#DejaVuSans-Bold-74"/>
      <use x="1130.273438" xlink:href="#DejaVuSans-Bold-65"/>
      <use x="1198.095703" xlink:href="#DejaVuSans-Bold-72"/>
      <use x="1247.412109" xlink:href="#DejaVuSans-Bold-3f"/>
     </g>
    </g>
    <g id="patch_3">
     <path d="M 191.24 36.092 
L 263.78 36.092 
L 263.78 7.1 
L 191.24 7.1 
z
" style="fill:#ecf7f9;"/>
    </g>
    <g id="text_2">
     <!-- Nominatim -->
     <defs>
      <path d="M 9.1875 72.90625 
L 30.171875 72.90625 
L 56.6875 22.90625 
L 56.6875 72.90625 
L 74.515625 72.90625 
L 74.515625 0 
L 53.515625 0 
L 27 50 
L 27 0 
L 9.1875 0 
z
" id="DejaVuSans-Bold-4e"/>
      <path d="M 59.078125 45.609375 
Q 62.40625 50.6875 66.96875 53.34375 
Q 71.53125 56 77 56 
Q 86.421875 56 91.359375 50.1875 
Q 96.296875 44.390625 96.296875 33.296875 
L 96.296875 0 
L 78.71875 0 
L 78.71875 28.515625 
Q 78.765625 29.15625 78.78125 29.828125 
Q 78.8125 30.515625 78.8125 31.78125 
Q 78.8125 37.59375 77.09375 40.203125 
Q 75.390625 42.828125 71.578125 42.828125 
Q 66.609375 42.828125 63.890625 38.71875 
Q 61.1875 34.625 61.078125 26.859375 
L 61.078125 0 
L 43.5 0 
L 43.5 28.515625 
Q 43.5 37.59375 41.9375 40.203125 
Q 40.375 42.828125 36.375 42.828125 
Q 31.34375 42.828125 28.609375 38.703125 
Q 25.875 34.578125 25.875 26.90625 
L 25.875 0 
L 8.296875 0 
L 8.296875 54.6875 
L 25.875 54.6875 
L 25.875 46.6875 
Q 29.109375 51.3125 33.28125 53.65625 
Q 37.453125 56 42.484375 56 
Q 48.140625 56 52.484375 53.265625 
Q 56.84375 50.53125 59.078125 45.609375 
z
" id="DejaVuSans-Bold-6d"/>
     </defs>
     <g transform="translate(193.639453 24.631312)scale(0.11 -0.11)">
      <use xlink:href="#DejaVuSans-Bold-4e"/>
      <use x="83.691406" xlink:href="#DejaVuSans-Bold-6f"/>
      <use x="152.392578" xlink:href="#DejaVuSans-Bold-6d"/>
      <use x="256.591797" xlink:href="#DejaVuSans-Bold-69"/>
      <use x="290.869141" xlink:href="#DejaVuSans-Bold-6e"/>
      <use x="362.060547" xlink:href="#DejaVuSans-Bold-61"/>
      <use x="429.541016" xlink:href="#DejaVuSans-Bold-74"/>
      <use x="477.34375" xlink:href="#DejaVuSans-Bold-69"/>
      <use x="511.621094" xlink:href="#DejaVuSans-Bold-6d"/>
     </g>
    </g>
    <g id="patch_4">
     <path d="M 263.78 36.092 
L 328.348571 36.092 
L 328.348571 7.1 
L 263.78 7.1 
z
" style="fill:#ecf7f9;"/>
    </g>
    <g id="text_3">
     <!-- GoogleV3 -->
     <defs>
      <path d="M 74.703125 5.421875 
Q 67.671875 2 60.109375 0.28125 
Q 52.546875 -1.421875 44.484375 -1.421875 
Q 26.265625 -1.421875 15.625 8.765625 
Q 4.984375 18.953125 4.984375 36.375 
Q 4.984375 54 15.8125 64.109375 
Q 26.65625 74.21875 45.515625 74.21875 
Q 52.78125 74.21875 59.4375 72.84375 
Q 66.109375 71.484375 72.015625 68.796875 
L 72.015625 53.71875 
Q 65.921875 57.171875 59.890625 58.875 
Q 53.859375 60.59375 47.796875 60.59375 
Q 36.578125 60.59375 30.5 54.3125 
Q 24.421875 48.046875 24.421875 36.375 
Q 24.421875 24.8125 30.28125 18.5 
Q 36.140625 12.203125 46.921875 12.203125 
Q 49.859375 12.203125 52.375 12.5625 
Q 54.890625 12.9375 56.890625 13.71875 
L 56.890625 27.875 
L 45.40625 27.875 
L 45.40625 40.484375 
L 74.703125 40.484375 
z
" id="DejaVuSans-Bold-47"/>
      <path d="M 45.609375 9.28125 
Q 42 4.5 37.640625 2.25 
Q 33.296875 0 27.59375 0 
Q 17.578125 0 11.03125 7.875 
Q 4.5 15.765625 4.5 27.984375 
Q 4.5 40.234375 11.03125 48.0625 
Q 17.578125 55.90625 27.59375 55.90625 
Q 33.296875 55.90625 37.640625 53.65625 
Q 42 51.421875 45.609375 46.578125 
L 45.609375 54.6875 
L 63.1875 54.6875 
L 63.1875 5.515625 
Q 63.1875 -7.671875 54.859375 -14.625 
Q 46.53125 -21.578125 30.71875 -21.578125 
Q 25.59375 -21.578125 20.796875 -20.796875 
Q 16.015625 -20.015625 11.1875 -18.40625 
L 11.1875 -4.78125 
Q 15.765625 -7.421875 20.15625 -8.71875 
Q 24.5625 -10.015625 29 -10.015625 
Q 37.59375 -10.015625 41.59375 -6.25 
Q 45.609375 -2.484375 45.609375 5.515625 
z
M 34.078125 43.3125 
Q 28.65625 43.3125 25.625 39.296875 
Q 22.609375 35.296875 22.609375 27.984375 
Q 22.609375 20.453125 25.53125 16.578125 
Q 28.46875 12.703125 34.078125 12.703125 
Q 39.546875 12.703125 42.578125 16.703125 
Q 45.609375 20.703125 45.609375 27.984375 
Q 45.609375 35.296875 42.578125 39.296875 
Q 39.546875 43.3125 34.078125 43.3125 
z
" id="DejaVuSans-Bold-67"/>
      <path d="M 8.40625 75.984375 
L 25.875 75.984375 
L 25.875 0 
L 8.40625 0 
z
" id="DejaVuSans-Bold-6c"/>
      <path d="M 0.484375 72.90625 
L 19.390625 72.90625 
L 38.71875 19.09375 
L 58.015625 72.90625 
L 76.90625 72.90625 
L 49.90625 0 
L 27.484375 0 
z
" id="DejaVuSans-Bold-56"/>
      <path d="M 46.578125 39.3125 
Q 53.953125 37.40625 57.78125 32.6875 
Q 61.625 27.984375 61.625 20.703125 
Q 61.625 9.859375 53.3125 4.21875 
Q 45.015625 -1.421875 29.109375 -1.421875 
Q 23.484375 -1.421875 17.84375 -0.515625 
Q 12.203125 0.390625 6.6875 2.203125 
L 6.6875 16.703125 
Q 11.96875 14.0625 17.15625 12.71875 
Q 22.359375 11.375 27.390625 11.375 
Q 34.859375 11.375 38.84375 13.953125 
Q 42.828125 16.546875 42.828125 21.390625 
Q 42.828125 26.375 38.75 28.9375 
Q 34.671875 31.5 26.703125 31.5 
L 19.1875 31.5 
L 19.1875 43.609375 
L 27.09375 43.609375 
Q 34.1875 43.609375 37.640625 45.828125 
Q 41.109375 48.046875 41.109375 52.59375 
Q 41.109375 56.78125 37.734375 59.078125 
Q 34.375 61.375 28.21875 61.375 
Q 23.6875 61.375 19.046875 60.34375 
Q 14.40625 59.328125 9.8125 57.328125 
L 9.8125 71.09375 
Q 15.375 72.65625 20.84375 73.4375 
Q 26.3125 74.21875 31.59375 74.21875 
Q 45.796875 74.21875 52.84375 69.546875 
Q 59.90625 64.890625 59.90625 55.515625 
Q 59.90625 49.125 56.53125 45.046875 
Q 53.171875 40.96875 46.578125 39.3125 
z
" id="DejaVuSans-Bold-33"/>
     </defs>
     <g transform="translate(266.356551 24.588344)scale(0.11 -0.11)">
      <use xlink:href="#DejaVuSans-Bold-47"/>
      <use x="82.080078" xlink:href="#DejaVuSans-Bold-6f"/>
      <use x="150.78125" xlink:href="#DejaVuSans-Bold-6f"/>
      <use x="219.482422" xlink:href="#DejaVuSans-Bold-67"/>
      <use x="291.064453" xlink:href="#DejaVuSans-Bold-6c"/>
      <use x="325.341797" xlink:href="#DejaVuSans-Bold-65"/>
      <use x="393.164062" xlink:href="#DejaVuSans-Bold-56"/>
      <use x="470.556641" xlink:href="#DejaVuSans-Bold-33"/>
     </g>
    </g>
    <g id="patch_5">
     <path d="M 328.348571 36.092 
L 376.974286 36.092 
L 376.974286 7.1 
L 328.348571 7.1 
z
" style="fill:#ecf7f9;"/>
    </g>
    <g id="text_4">
     <!-- ArcGis -->
     <defs>
      <path d="M 53.421875 13.28125 
L 24.03125 13.28125 
L 19.390625 0 
L 0.484375 0 
L 27.484375 72.90625 
L 49.90625 72.90625 
L 76.90625 0 
L 58.015625 0 
z
M 28.71875 26.8125 
L 48.6875 26.8125 
L 38.71875 55.8125 
z
" id="DejaVuSans-Bold-41"/>
     </defs>
     <g transform="translate(332.759163 24.631312)scale(0.11 -0.11)">
      <use xlink:href="#DejaVuSans-Bold-41"/>
      <use x="77.392578" xlink:href="#DejaVuSans-Bold-72"/>
      <use x="126.708984" xlink:href="#DejaVuSans-Bold-63"/>
      <use x="185.986328" xlink:href="#DejaVuSans-Bold-47"/>
      <use x="268.066406" xlink:href="#DejaVuSans-Bold-69"/>
      <use x="302.34375" xlink:href="#DejaVuSans-Bold-73"/>
     </g>
    </g>
    <g id="patch_6">
     <path d="M 376.974286 36.092 
L 449.514286 36.092 
L 449.514286 7.1 
L 376.974286 7.1 
z
" style="fill:#ecf7f9;"/>
    </g>
    <g id="text_5">
     <!-- AzureMaps -->
     <defs>
      <path d="M 5.71875 54.6875 
L 53.421875 54.6875 
L 53.421875 42.484375 
L 24.609375 12.5 
L 53.421875 12.5 
L 53.421875 0 
L 4.5 0 
L 4.5 12.203125 
L 33.296875 42.1875 
L 5.71875 42.1875 
z
" id="DejaVuSans-Bold-7a"/>
      <path d="M 7.8125 21.296875 
L 7.8125 54.6875 
L 25.390625 54.6875 
L 25.390625 49.21875 
Q 25.390625 44.78125 25.34375 38.0625 
Q 25.296875 31.34375 25.296875 29.109375 
Q 25.296875 22.515625 25.640625 19.609375 
Q 25.984375 16.703125 26.8125 15.375 
Q 27.875 13.671875 29.609375 12.734375 
Q 31.34375 11.8125 33.59375 11.8125 
Q 39.0625 11.8125 42.1875 16.015625 
Q 45.3125 20.21875 45.3125 27.6875 
L 45.3125 54.6875 
L 62.796875 54.6875 
L 62.796875 0 
L 45.3125 0 
L 45.3125 7.90625 
Q 41.359375 3.125 36.9375 0.84375 
Q 32.515625 -1.421875 27.203125 -1.421875 
Q 17.71875 -1.421875 12.765625 4.390625 
Q 7.8125 10.203125 7.8125 21.296875 
z
" id="DejaVuSans-Bold-75"/>
      <path d="M 9.1875 72.90625 
L 33.109375 72.90625 
L 49.703125 33.890625 
L 66.40625 72.90625 
L 90.28125 72.90625 
L 90.28125 0 
L 72.515625 0 
L 72.515625 53.328125 
L 55.71875 14.015625 
L 43.796875 14.015625 
L 27 53.328125 
L 27 0 
L 9.1875 0 
z
" id="DejaVuSans-Bold-4d"/>
      <path d="M 25.875 7.90625 
L 25.875 -20.796875 
L 8.40625 -20.796875 
L 8.40625 54.6875 
L 25.875 54.6875 
L 25.875 46.6875 
Q 29.5 51.46875 33.890625 53.734375 
Q 38.28125 56 44 56 
Q 54.109375 56 60.59375 47.96875 
Q 67.09375 39.9375 67.09375 27.296875 
Q 67.09375 14.65625 60.59375 6.609375 
Q 54.109375 -1.421875 44 -1.421875 
Q 38.28125 -1.421875 33.890625 0.84375 
Q 29.5 3.125 25.875 7.90625 
z
M 37.5 43.3125 
Q 31.890625 43.3125 28.875 39.1875 
Q 25.875 35.0625 25.875 27.296875 
Q 25.875 19.53125 28.875 15.40625 
Q 31.890625 11.28125 37.5 11.28125 
Q 43.109375 11.28125 46.0625 15.375 
Q 49.03125 19.484375 49.03125 27.296875 
Q 49.03125 35.109375 46.0625 39.203125 
Q 43.109375 43.3125 37.5 43.3125 
z
" id="DejaVuSans-Bold-70"/>
     </defs>
     <g transform="translate(379.033426 24.631312)scale(0.11 -0.11)">
      <use xlink:href="#DejaVuSans-Bold-41"/>
      <use x="77.392578" xlink:href="#DejaVuSans-Bold-7a"/>
      <use x="135.595703" xlink:href="#DejaVuSans-Bold-75"/>
      <use x="206.787109" xlink:href="#DejaVuSans-Bold-72"/>
      <use x="256.103516" xlink:href="#DejaVuSans-Bold-65"/>
      <use x="323.925781" xlink:href="#DejaVuSans-Bold-4d"/>
      <use x="423.4375" xlink:href="#DejaVuSans-Bold-61"/>
      <use x="490.917969" xlink:href="#DejaVuSans-Bold-70"/>
      <use x="562.5" xlink:href="#DejaVuSans-Bold-73"/>
     </g>
    </g>
    <g id="patch_7">
     <path d="M 7.1 65.084 
L 191.24 65.084 
L 191.24 36.092 
L 7.1 36.092 
z
" style="fill:#f1f1f2;"/>
    </g>
    <g id="text_6">
     <!-- New York City -->
     <defs>
      <path d="M 3.515625 54.6875 
L 20.515625 54.6875 
L 29.6875 17 
L 38.921875 54.6875 
L 53.515625 54.6875 
L 62.703125 17.390625 
L 71.921875 54.6875 
L 88.921875 54.6875 
L 74.515625 0 
L 55.421875 0 
L 46.1875 37.59375 
L 37.015625 0 
L 17.921875 0 
z
" id="DejaVuSans-Bold-77"/>
      <path d="M -0.984375 72.90625 
L 19.578125 72.90625 
L 36.1875 46.921875 
L 52.78125 72.90625 
L 73.390625 72.90625 
L 45.609375 30.71875 
L 45.609375 0 
L 26.8125 0 
L 26.8125 30.71875 
z
" id="DejaVuSans-Bold-59"/>
      <path d="M 8.40625 75.984375 
L 25.875 75.984375 
L 25.875 34.625 
L 46 54.6875 
L 66.3125 54.6875 
L 39.59375 29.59375 
L 68.40625 0 
L 47.21875 0 
L 25.875 22.796875 
L 25.875 0 
L 8.40625 0 
z
" id="DejaVuSans-Bold-6b"/>
      <path d="M 67 4 
Q 61.8125 1.3125 56.203125 -0.046875 
Q 50.59375 -1.421875 44.484375 -1.421875 
Q 26.265625 -1.421875 15.625 8.765625 
Q 4.984375 18.953125 4.984375 36.375 
Q 4.984375 53.859375 15.625 64.03125 
Q 26.265625 74.21875 44.484375 74.21875 
Q 50.59375 74.21875 56.203125 72.84375 
Q 61.8125 71.484375 67 68.796875 
L 67 53.71875 
Q 61.765625 57.28125 56.6875 58.9375 
Q 51.609375 60.59375 46 60.59375 
Q 35.9375 60.59375 30.171875 54.140625 
Q 24.421875 47.703125 24.421875 36.375 
Q 24.421875 25.09375 30.171875 18.640625 
Q 35.9375 12.203125 46 12.203125 
Q 51.609375 12.203125 56.6875 13.859375 
Q 61.765625 15.53125 67 19.09375 
z
" id="DejaVuSans-Bold-43"/>
      <path d="M 1.21875 54.6875 
L 18.703125 54.6875 
L 33.40625 17.578125 
L 45.90625 54.6875 
L 63.375 54.6875 
L 40.375 -5.171875 
Q 36.921875 -14.3125 32.296875 -17.9375 
Q 27.6875 -21.578125 20.125 -21.578125 
L 10.015625 -21.578125 
L 10.015625 -10.109375 
L 15.484375 -10.109375 
Q 19.921875 -10.109375 21.9375 -8.6875 
Q 23.96875 -7.28125 25.09375 -3.609375 
L 25.59375 -2.09375 
z
" id="DejaVuSans-Bold-79"/>
     </defs>
     <g transform="translate(85.819438 53.580344)scale(0.11 -0.11)">
      <use xlink:href="#DejaVuSans-Bold-4e"/>
      <use x="83.691406" xlink:href="#DejaVuSans-Bold-65"/>
      <use x="151.513672" xlink:href="#DejaVuSans-Bold-77"/>
      <use x="243.896484" xlink:href="#DejaVuSans-Bold-20"/>
      <use x="278.710938" xlink:href="#DejaVuSans-Bold-59"/>
      <use x="350.982422" xlink:href="#DejaVuSans-Bold-6f"/>
      <use x="419.683594" xlink:href="#DejaVuSans-Bold-72"/>
      <use x="469" xlink:href="#DejaVuSans-Bold-6b"/>
      <use x="535.503906" xlink:href="#DejaVuSans-Bold-20"/>
      <use x="570.318359" xlink:href="#DejaVuSans-Bold-43"/>
      <use x="643.707031" xlink:href="#DejaVuSans-Bold-69"/>
      <use x="677.984375" xlink:href="#DejaVuSans-Bold-74"/>
      <use x="725.787109" xlink:href="#DejaVuSans-Bold-79"/>
     </g>
    </g>
    <g id="patch_8">
     <path d="M 191.24 65.084 
L 263.78 65.084 
L 263.78 36.092 
L 191.24 36.092 
z
" style="fill:#f1f1f2;"/>
    </g>
    <g id="text_7">
     <!-- False -->
     <defs>
      <path d="M 9.8125 72.90625 
L 51.703125 72.90625 
L 51.703125 64.59375 
L 19.671875 64.59375 
L 19.671875 43.109375 
L 48.578125 43.109375 
L 48.578125 34.8125 
L 19.671875 34.8125 
L 19.671875 0 
L 9.8125 0 
z
" id="DejaVuSans-46"/>
      <path d="M 34.28125 27.484375 
Q 23.390625 27.484375 19.1875 25 
Q 14.984375 22.515625 14.984375 16.5 
Q 14.984375 11.71875 18.140625 8.90625 
Q 21.296875 6.109375 26.703125 6.109375 
Q 34.1875 6.109375 38.703125 11.40625 
Q 43.21875 16.703125 43.21875 25.484375 
L 43.21875 27.484375 
z
M 52.203125 31.203125 
L 52.203125 0 
L 43.21875 0 
L 43.21875 8.296875 
Q 40.140625 3.328125 35.546875 0.953125 
Q 30.953125 -1.421875 24.3125 -1.421875 
Q 15.921875 -1.421875 10.953125 3.296875 
Q 6 8.015625 6 15.921875 
Q 6 25.140625 12.171875 29.828125 
Q 18.359375 34.515625 30.609375 34.515625 
L 43.21875 34.515625 
L 43.21875 35.40625 
Q 43.21875 41.609375 39.140625 45 
Q 35.0625 48.390625 27.6875 48.390625 
Q 23 48.390625 18.546875 47.265625 
Q 14.109375 46.140625 10.015625 43.890625 
L 10.015625 52.203125 
Q 14.9375 54.109375 19.578125 55.046875 
Q 24.21875 56 28.609375 56 
Q 40.484375 56 46.34375 49.84375 
Q 52.203125 43.703125 52.203125 31.203125 
z
" id="DejaVuSans-61"/>
      <path d="M 9.421875 75.984375 
L 18.40625 75.984375 
L 18.40625 0 
L 9.421875 0 
z
" id="DejaVuSans-6c"/>
      <path d="M 44.28125 53.078125 
L 44.28125 44.578125 
Q 40.484375 46.53125 36.375 47.5 
Q 32.28125 48.484375 27.875 48.484375 
Q 21.1875 48.484375 17.84375 46.4375 
Q 14.5 44.390625 14.5 40.28125 
Q 14.5 37.15625 16.890625 35.375 
Q 19.28125 33.59375 26.515625 31.984375 
L 29.59375 31.296875 
Q 39.15625 29.25 43.1875 25.515625 
Q 47.21875 21.78125 47.21875 15.09375 
Q 47.21875 7.46875 41.1875 3.015625 
Q 35.15625 -1.421875 24.609375 -1.421875 
Q 20.21875 -1.421875 15.453125 -0.5625 
Q 10.6875 0.296875 5.421875 2 
L 5.421875 11.28125 
Q 10.40625 8.6875 15.234375 7.390625 
Q 20.0625 6.109375 24.8125 6.109375 
Q 31.15625 6.109375 34.5625 8.28125 
Q 37.984375 10.453125 37.984375 14.40625 
Q 37.984375 18.0625 35.515625 20.015625 
Q 33.0625 21.96875 24.703125 23.78125 
L 21.578125 24.515625 
Q 13.234375 26.265625 9.515625 29.90625 
Q 5.8125 33.546875 5.8125 39.890625 
Q 5.8125 47.609375 11.28125 51.796875 
Q 16.75 56 26.8125 56 
Q 31.78125 56 36.171875 55.265625 
Q 40.578125 54.546875 44.28125 53.078125 
z
" id="DejaVuSans-73"/>
      <path d="M 56.203125 29.59375 
L 56.203125 25.203125 
L 14.890625 25.203125 
Q 15.484375 15.921875 20.484375 11.0625 
Q 25.484375 6.203125 34.421875 6.203125 
Q 39.59375 6.203125 44.453125 7.46875 
Q 49.3125 8.734375 54.109375 11.28125 
L 54.109375 2.78125 
Q 49.265625 0.734375 44.1875 -0.34375 
Q 39.109375 -1.421875 33.890625 -1.421875 
Q 20.796875 -1.421875 13.15625 6.1875 
Q 5.515625 13.8125 5.515625 26.8125 
Q 5.515625 40.234375 12.765625 48.109375 
Q 20.015625 56 32.328125 56 
Q 43.359375 56 49.78125 48.890625 
Q 56.203125 41.796875 56.203125 29.59375 
z
M 47.21875 32.234375 
Q 47.125 39.59375 43.09375 43.984375 
Q 39.0625 48.390625 32.421875 48.390625 
Q 24.90625 48.390625 20.390625 44.140625 
Q 15.875 39.890625 15.1875 32.171875 
z
" id="DejaVuSans-65"/>
     </defs>
     <g transform="translate(227.919125 53.623312)scale(0.11 -0.11)">
      <use xlink:href="#DejaVuSans-46"/>
      <use x="57.378906" xlink:href="#DejaVuSans-61"/>
      <use x="118.658203" xlink:href="#DejaVuSans-6c"/>
      <use x="146.441406" xlink:href="#DejaVuSans-73"/>
      <use x="198.541016" xlink:href="#DejaVuSans-65"/>
     </g>
    </g>
    <g id="patch_9">
     <path d="M 263.78 65.084 
L 328.348571 65.084 
L 328.348571 36.092 
L 263.78 36.092 
z
" style="fill:#f1f1f2;"/>
    </g>
    <g id="text_8">
     <!-- False -->
     <g transform="translate(293.284839 53.623312)scale(0.11 -0.11)">
      <use xlink:href="#DejaVuSans-46"/>
      <use x="57.378906" xlink:href="#DejaVuSans-61"/>
      <use x="118.658203" xlink:href="#DejaVuSans-6c"/>
      <use x="146.441406" xlink:href="#DejaVuSans-73"/>
      <use x="198.541016" xlink:href="#DejaVuSans-65"/>
     </g>
    </g>
    <g id="patch_10">
     <path d="M 328.348571 65.084 
L 376.974286 65.084 
L 376.974286 36.092 
L 328.348571 36.092 
z
" style="fill:#f1f1f2;"/>
    </g>
    <g id="text_9">
     <!-- True -->
     <defs>
      <path d="M -0.296875 72.90625 
L 61.375 72.90625 
L 61.375 64.59375 
L 35.5 64.59375 
L 35.5 0 
L 25.59375 0 
L 25.59375 64.59375 
L -0.296875 64.59375 
z
" id="DejaVuSans-54"/>
      <path d="M 41.109375 46.296875 
Q 39.59375 47.171875 37.8125 47.578125 
Q 36.03125 48 33.890625 48 
Q 26.265625 48 22.1875 43.046875 
Q 18.109375 38.09375 18.109375 28.8125 
L 18.109375 0 
L 9.078125 0 
L 9.078125 54.6875 
L 18.109375 54.6875 
L 18.109375 46.1875 
Q 20.953125 51.171875 25.484375 53.578125 
Q 30.03125 56 36.53125 56 
Q 37.453125 56 38.578125 55.875 
Q 39.703125 55.765625 41.0625 55.515625 
z
" id="DejaVuSans-72"/>
      <path d="M 8.5 21.578125 
L 8.5 54.6875 
L 17.484375 54.6875 
L 17.484375 21.921875 
Q 17.484375 14.15625 20.5 10.265625 
Q 23.53125 6.390625 29.59375 6.390625 
Q 36.859375 6.390625 41.078125 11.03125 
Q 45.3125 15.671875 45.3125 23.6875 
L 45.3125 54.6875 
L 54.296875 54.6875 
L 54.296875 0 
L 45.3125 0 
L 45.3125 8.40625 
Q 42.046875 3.421875 37.71875 1 
Q 33.40625 -1.421875 27.6875 -1.421875 
Q 18.265625 -1.421875 13.375 4.4375 
Q 8.5 10.296875 8.5 21.578125 
z
M 31.109375 56 
z
" id="DejaVuSans-75"/>
     </defs>
     <g transform="translate(347.155464 53.623312)scale(0.11 -0.11)">
      <use xlink:href="#DejaVuSans-54"/>
      <use x="60.865234" xlink:href="#DejaVuSans-72"/>
      <use x="101.978516" xlink:href="#DejaVuSans-75"/>
      <use x="165.357422" xlink:href="#DejaVuSans-65"/>
     </g>
    </g>
    <g id="patch_11">
     <path d="M 376.974286 65.084 
L 449.514286 65.084 
L 449.514286 36.092 
L 376.974286 36.092 
z
" style="fill:#f1f1f2;"/>
    </g>
    <g id="text_10">
     <!-- False -->
     <g transform="translate(413.653411 53.623312)scale(0.11 -0.11)">
      <use xlink:href="#DejaVuSans-46"/>
      <use x="57.378906" xlink:href="#DejaVuSans-61"/>
      <use x="118.658203" xlink:href="#DejaVuSans-6c"/>
      <use x="146.441406" xlink:href="#DejaVuSans-73"/>
      <use x="198.541016" xlink:href="#DejaVuSans-65"/>
     </g>
    </g>
    <g id="patch_12">
     <path d="M 7.1 94.076 
L 191.24 94.076 
L 191.24 65.084 
L 7.1 65.084 
z
" style="fill:#ffffff;"/>
    </g>
    <g id="text_11">
     <!-- Cleopatra's needle -->
     <defs>
      <path d="M 21.09375 72.90625 
L 21.09375 45.796875 
L 9.515625 45.796875 
L 9.515625 72.90625 
z
" id="DejaVuSans-Bold-27"/>
      <path d="M 45.609375 46.6875 
L 45.609375 75.984375 
L 63.1875 75.984375 
L 63.1875 0 
L 45.609375 0 
L 45.609375 7.90625 
Q 42 3.078125 37.640625 0.828125 
Q 33.296875 -1.421875 27.59375 -1.421875 
Q 17.484375 -1.421875 10.984375 6.609375 
Q 4.5 14.65625 4.5 27.296875 
Q 4.5 39.9375 10.984375 47.96875 
Q 17.484375 56 27.59375 56 
Q 33.25 56 37.625 53.734375 
Q 42 51.46875 45.609375 46.6875 
z
M 34.078125 11.28125 
Q 39.703125 11.28125 42.65625 15.375 
Q 45.609375 19.484375 45.609375 27.296875 
Q 45.609375 35.109375 42.65625 39.203125 
Q 39.703125 43.3125 34.078125 43.3125 
Q 28.515625 43.3125 25.5625 39.203125 
Q 22.609375 35.109375 22.609375 27.296875 
Q 22.609375 19.484375 25.5625 15.375 
Q 28.515625 11.28125 34.078125 11.28125 
z
" id="DejaVuSans-Bold-64"/>
     </defs>
     <g transform="translate(56.959906 82.615312)scale(0.11 -0.11)">
      <use xlink:href="#DejaVuSans-Bold-43"/>
      <use x="73.388672" xlink:href="#DejaVuSans-Bold-6c"/>
      <use x="107.666016" xlink:href="#DejaVuSans-Bold-65"/>
      <use x="175.488281" xlink:href="#DejaVuSans-Bold-6f"/>
      <use x="244.189453" xlink:href="#DejaVuSans-Bold-70"/>
      <use x="315.771484" xlink:href="#DejaVuSans-Bold-61"/>
      <use x="383.251953" xlink:href="#DejaVuSans-Bold-74"/>
      <use x="431.054688" xlink:href="#DejaVuSans-Bold-72"/>
      <use x="480.371094" xlink:href="#DejaVuSans-Bold-61"/>
      <use x="547.851562" xlink:href="#DejaVuSans-Bold-27"/>
      <use x="578.466797" xlink:href="#DejaVuSans-Bold-73"/>
      <use x="637.988281" xlink:href="#DejaVuSans-Bold-20"/>
      <use x="672.802734" xlink:href="#DejaVuSans-Bold-6e"/>
      <use x="743.994141" xlink:href="#DejaVuSans-Bold-65"/>
      <use x="811.816406" xlink:href="#DejaVuSans-Bold-65"/>
      <use x="879.638672" xlink:href="#DejaVuSans-Bold-64"/>
      <use x="951.220703" xlink:href="#DejaVuSans-Bold-6c"/>
      <use x="985.498047" xlink:href="#DejaVuSans-Bold-65"/>
     </g>
    </g>
    <g id="patch_13">
     <path d="M 191.24 94.076 
L 263.78 94.076 
L 263.78 65.084 
L 191.24 65.084 
z
" style="fill:#ffffff;"/>
    </g>
    <g id="text_12">
     <!-- True -->
     <g transform="translate(231.56975 82.615312)scale(0.11 -0.11)">
      <use xlink:href="#DejaVuSans-54"/>
      <use x="60.865234" xlink:href="#DejaVuSans-72"/>
      <use x="101.978516" xlink:href="#DejaVuSans-75"/>
      <use x="165.357422" xlink:href="#DejaVuSans-65"/>
     </g>
    </g>
    <g id="patch_14">
     <path d="M 263.78 94.076 
L 328.348571 94.076 
L 328.348571 65.084 
L 263.78 65.084 
z
" style="fill:#ffffff;"/>
    </g>
    <g id="text_13">
     <!-- True -->
     <g transform="translate(296.935464 82.615312)scale(0.11 -0.11)">
      <use xlink:href="#DejaVuSans-54"/>
      <use x="60.865234" xlink:href="#DejaVuSans-72"/>
      <use x="101.978516" xlink:href="#DejaVuSans-75"/>
      <use x="165.357422" xlink:href="#DejaVuSans-65"/>
     </g>
    </g>
    <g id="patch_15">
     <path d="M 328.348571 94.076 
L 376.974286 94.076 
L 376.974286 65.084 
L 328.348571 65.084 
z
" style="fill:#ffffff;"/>
    </g>
    <g id="text_14">
     <!-- True -->
     <g transform="translate(347.155464 82.615312)scale(0.11 -0.11)">
      <use xlink:href="#DejaVuSans-54"/>
      <use x="60.865234" xlink:href="#DejaVuSans-72"/>
      <use x="101.978516" xlink:href="#DejaVuSans-75"/>
      <use x="165.357422" xlink:href="#DejaVuSans-65"/>
     </g>
    </g>
    <g id="patch_16">
     <path d="M 376.974286 94.076 
L 449.514286 94.076 
L 449.514286 65.084 
L 376.974286 65.084 
z
" style="fill:#ffffff;"/>
    </g>
    <g id="text_15">
     <!-- False -->
     <g transform="translate(413.653411 82.615312)scale(0.11 -0.11)">
      <use xlink:href="#DejaVuSans-46"/>
      <use x="57.378906" xlink:href="#DejaVuSans-61"/>
      <use x="118.658203" xlink:href="#DejaVuSans-6c"/>
      <use x="146.441406" xlink:href="#DejaVuSans-73"/>
      <use x="198.541016" xlink:href="#DejaVuSans-65"/>
     </g>
    </g>
    <g id="patch_17">
     <path d="M 7.1 123.068 
L 191.24 123.068 
L 191.24 94.076 
L 7.1 94.076 
z
" style="fill:#f1f1f2;"/>
    </g>
    <g id="text_16">
     <!-- Bronx county -->
     <defs>
      <path d="M 38.375 44.671875 
Q 42.828125 44.671875 45.109375 46.625 
Q 47.40625 48.578125 47.40625 52.390625 
Q 47.40625 56.15625 45.109375 58.125 
Q 42.828125 60.109375 38.375 60.109375 
L 27.984375 60.109375 
L 27.984375 44.671875 
z
M 39.015625 12.796875 
Q 44.671875 12.796875 47.53125 15.1875 
Q 50.390625 17.578125 50.390625 22.40625 
Q 50.390625 27.15625 47.5625 29.515625 
Q 44.734375 31.890625 39.015625 31.890625 
L 27.984375 31.890625 
L 27.984375 12.796875 
z
M 56.5 39.015625 
Q 62.546875 37.25 65.859375 32.515625 
Q 69.1875 27.78125 69.1875 20.90625 
Q 69.1875 10.359375 62.0625 5.171875 
Q 54.9375 0 40.375 0 
L 9.1875 0 
L 9.1875 72.90625 
L 37.40625 72.90625 
Q 52.59375 72.90625 59.40625 68.3125 
Q 66.21875 63.71875 66.21875 53.609375 
Q 66.21875 48.296875 63.71875 44.5625 
Q 61.234375 40.828125 56.5 39.015625 
z
" id="DejaVuSans-Bold-42"/>
     </defs>
     <g transform="translate(90.537406 111.521375)scale(0.11 -0.11)">
      <use xlink:href="#DejaVuSans-Bold-42"/>
      <use x="76.220703" xlink:href="#DejaVuSans-Bold-72"/>
      <use x="125.537109" xlink:href="#DejaVuSans-Bold-6f"/>
      <use x="194.238281" xlink:href="#DejaVuSans-Bold-6e"/>
      <use x="265.429688" xlink:href="#DejaVuSans-Bold-78"/>
      <use x="329.931641" xlink:href="#DejaVuSans-Bold-20"/>
      <use x="364.746094" xlink:href="#DejaVuSans-Bold-63"/>
      <use x="424.023438" xlink:href="#DejaVuSans-Bold-6f"/>
      <use x="492.724609" xlink:href="#DejaVuSans-Bold-75"/>
      <use x="563.916016" xlink:href="#DejaVuSans-Bold-6e"/>
      <use x="635.107422" xlink:href="#DejaVuSans-Bold-74"/>
      <use x="682.910156" xlink:href="#DejaVuSans-Bold-79"/>
     </g>
    </g>
    <g id="patch_18">
     <path d="M 191.24 123.068 
L 263.78 123.068 
L 263.78 94.076 
L 191.24 94.076 
z
" style="fill:#f1f1f2;"/>
    </g>
    <g id="text_17">
     <!-- True -->
     <g transform="translate(231.56975 111.607312)scale(0.11 -0.11)">
      <use xlink:href="#DejaVuSans-54"/>
      <use x="60.865234" xlink:href="#DejaVuSans-72"/>
      <use x="101.978516" xlink:href="#DejaVuSans-75"/>
      <use x="165.357422" xlink:href="#DejaVuSans-65"/>
     </g>
    </g>
    <g id="patch_19">
     <path d="M 263.78 123.068 
L 328.348571 123.068 
L 328.348571 94.076 
L 263.78 94.076 
z
" style="fill:#f1f1f2;"/>
    </g>
    <g id="text_18">
     <!-- False -->
     <g transform="translate(293.284839 111.607312)scale(0.11 -0.11)">
      <use xlink:href="#DejaVuSans-46"/>
      <use x="57.378906" xlink:href="#DejaVuSans-61"/>
      <use x="118.658203" xlink:href="#DejaVuSans-6c"/>
      <use x="146.441406" xlink:href="#DejaVuSans-73"/>
      <use x="198.541016" xlink:href="#DejaVuSans-65"/>
     </g>
    </g>
    <g id="patch_20">
     <path d="M 328.348571 123.068 
L 376.974286 123.068 
L 376.974286 94.076 
L 328.348571 94.076 
z
" style="fill:#f1f1f2;"/>
    </g>
    <g id="text_19">
     <!-- True -->
     <g transform="translate(347.155464 111.607312)scale(0.11 -0.11)">
      <use xlink:href="#DejaVuSans-54"/>
      <use x="60.865234" xlink:href="#DejaVuSans-72"/>
      <use x="101.978516" xlink:href="#DejaVuSans-75"/>
      <use x="165.357422" xlink:href="#DejaVuSans-65"/>
     </g>
    </g>
    <g id="patch_21">
     <path d="M 376.974286 123.068 
L 449.514286 123.068 
L 449.514286 94.076 
L 376.974286 94.076 
z
" style="fill:#f1f1f2;"/>
    </g>
    <g id="text_20">
     <!-- False -->
     <g transform="translate(413.653411 111.607312)scale(0.11 -0.11)">
      <use xlink:href="#DejaVuSans-46"/>
      <use x="57.378906" xlink:href="#DejaVuSans-61"/>
      <use x="118.658203" xlink:href="#DejaVuSans-6c"/>
      <use x="146.441406" xlink:href="#DejaVuSans-73"/>
      <use x="198.541016" xlink:href="#DejaVuSans-65"/>
     </g>
    </g>
    <g id="patch_22">
     <path d="M 7.1 152.06 
L 191.24 152.06 
L 191.24 123.068 
L 7.1 123.068 
z
" style="fill:#ffffff;"/>
    </g>
    <g id="text_21">
     <!-- Kings county -->
     <defs>
      <path d="M 9.1875 72.90625 
L 27.984375 72.90625 
L 27.984375 46.296875 
L 55.078125 72.90625 
L 76.90625 72.90625 
L 41.796875 38.375 
L 80.515625 0 
L 56.984375 0 
L 27.984375 28.71875 
L 27.984375 0 
L 9.1875 0 
z
" id="DejaVuSans-Bold-4b"/>
     </defs>
     <g transform="translate(92.283656 140.556344)scale(0.11 -0.11)">
      <use xlink:href="#DejaVuSans-Bold-4b"/>
      <use x="77.490234" xlink:href="#DejaVuSans-Bold-69"/>
      <use x="111.767578" xlink:href="#DejaVuSans-Bold-6e"/>
      <use x="182.958984" xlink:href="#DejaVuSans-Bold-67"/>
      <use x="254.541016" xlink:href="#DejaVuSans-Bold-73"/>
      <use x="314.0625" xlink:href="#DejaVuSans-Bold-20"/>
      <use x="348.876953" xlink:href="#DejaVuSans-Bold-63"/>
      <use x="408.154297" xlink:href="#DejaVuSans-Bold-6f"/>
      <use x="476.855469" xlink:href="#DejaVuSans-Bold-75"/>
      <use x="548.046875" xlink:href="#DejaVuSans-Bold-6e"/>
      <use x="619.238281" xlink:href="#DejaVuSans-Bold-74"/>
      <use x="667.041016" xlink:href="#DejaVuSans-Bold-79"/>
     </g>
    </g>
    <g id="patch_23">
     <path d="M 191.24 152.06 
L 263.78 152.06 
L 263.78 123.068 
L 191.24 123.068 
z
" style="fill:#ffffff;"/>
    </g>
    <g id="text_22">
     <!-- False -->
     <g transform="translate(227.919125 140.599312)scale(0.11 -0.11)">
      <use xlink:href="#DejaVuSans-46"/>
      <use x="57.378906" xlink:href="#DejaVuSans-61"/>
      <use x="118.658203" xlink:href="#DejaVuSans-6c"/>
      <use x="146.441406" xlink:href="#DejaVuSans-73"/>
      <use x="198.541016" xlink:href="#DejaVuSans-65"/>
     </g>
    </g>
    <g id="patch_24">
     <path d="M 263.78 152.06 
L 328.348571 152.06 
L 328.348571 123.068 
L 263.78 123.068 
z
" style="fill:#ffffff;"/>
    </g>
    <g id="text_23">
     <!-- False -->
     <g transform="translate(293.284839 140.599312)scale(0.11 -0.11)">
      <use xlink:href="#DejaVuSans-46"/>
      <use x="57.378906" xlink:href="#DejaVuSans-61"/>
      <use x="118.658203" xlink:href="#DejaVuSans-6c"/>
      <use x="146.441406" xlink:href="#DejaVuSans-73"/>
      <use x="198.541016" xlink:href="#DejaVuSans-65"/>
     </g>
    </g>
    <g id="patch_25">
     <path d="M 328.348571 152.06 
L 376.974286 152.06 
L 376.974286 123.068 
L 328.348571 123.068 
z
" style="fill:#ffffff;"/>
    </g>
    <g id="text_24">
     <!-- True -->
     <g transform="translate(347.155464 140.599312)scale(0.11 -0.11)">
      <use xlink:href="#DejaVuSans-54"/>
      <use x="60.865234" xlink:href="#DejaVuSans-72"/>
      <use x="101.978516" xlink:href="#DejaVuSans-75"/>
      <use x="165.357422" xlink:href="#DejaVuSans-65"/>
     </g>
    </g>
    <g id="patch_26">
     <path d="M 376.974286 152.06 
L 449.514286 152.06 
L 449.514286 123.068 
L 376.974286 123.068 
z
" style="fill:#ffffff;"/>
    </g>
    <g id="text_25">
     <!-- False -->
     <g transform="translate(413.653411 140.599312)scale(0.11 -0.11)">
      <use xlink:href="#DejaVuSans-46"/>
      <use x="57.378906" xlink:href="#DejaVuSans-61"/>
      <use x="118.658203" xlink:href="#DejaVuSans-6c"/>
      <use x="146.441406" xlink:href="#DejaVuSans-73"/>
      <use x="198.541016" xlink:href="#DejaVuSans-65"/>
     </g>
    </g>
    <g id="patch_27">
     <path d="M 7.1 181.052 
L 191.24 181.052 
L 191.24 152.06 
L 7.1 152.06 
z
" style="fill:#f1f1f2;"/>
    </g>
    <g id="text_26">
     <!-- New York county -->
     <g transform="translate(67.923813 169.548344)scale(0.11 -0.11)">
      <use xlink:href="#DejaVuSans-Bold-4e"/>
      <use x="83.691406" xlink:href="#DejaVuSans-Bold-65"/>
      <use x="151.513672" xlink:href="#DejaVuSans-Bold-77"/>
      <use x="243.896484" xlink:href="#DejaVuSans-Bold-20"/>
      <use x="278.710938" xlink:href="#DejaVuSans-Bold-59"/>
      <use x="350.982422" xlink:href="#DejaVuSans-Bold-6f"/>
      <use x="419.683594" xlink:href="#DejaVuSans-Bold-72"/>
      <use x="469" xlink:href="#DejaVuSans-Bold-6b"/>
      <use x="535.503906" xlink:href="#DejaVuSans-Bold-20"/>
      <use x="570.318359" xlink:href="#DejaVuSans-Bold-63"/>
      <use x="629.595703" xlink:href="#DejaVuSans-Bold-6f"/>
      <use x="698.296875" xlink:href="#DejaVuSans-Bold-75"/>
      <use x="769.488281" xlink:href="#DejaVuSans-Bold-6e"/>
      <use x="840.679688" xlink:href="#DejaVuSans-Bold-74"/>
      <use x="888.482422" xlink:href="#DejaVuSans-Bold-79"/>
     </g>
    </g>
    <g id="patch_28">
     <path d="M 191.24 181.052 
L 263.78 181.052 
L 263.78 152.06 
L 191.24 152.06 
z
" style="fill:#f1f1f2;"/>
    </g>
    <g id="text_27">
     <!-- False -->
     <g transform="translate(227.919125 169.591312)scale(0.11 -0.11)">
      <use xlink:href="#DejaVuSans-46"/>
      <use x="57.378906" xlink:href="#DejaVuSans-61"/>
      <use x="118.658203" xlink:href="#DejaVuSans-6c"/>
      <use x="146.441406" xlink:href="#DejaVuSans-73"/>
      <use x="198.541016" xlink:href="#DejaVuSans-65"/>
     </g>
    </g>
    <g id="patch_29">
     <path d="M 263.78 181.052 
L 328.348571 181.052 
L 328.348571 152.06 
L 263.78 152.06 
z
" style="fill:#f1f1f2;"/>
    </g>
    <g id="text_28">
     <!-- False -->
     <g transform="translate(293.284839 169.591312)scale(0.11 -0.11)">
      <use xlink:href="#DejaVuSans-46"/>
      <use x="57.378906" xlink:href="#DejaVuSans-61"/>
      <use x="118.658203" xlink:href="#DejaVuSans-6c"/>
      <use x="146.441406" xlink:href="#DejaVuSans-73"/>
      <use x="198.541016" xlink:href="#DejaVuSans-65"/>
     </g>
    </g>
    <g id="patch_30">
     <path d="M 328.348571 181.052 
L 376.974286 181.052 
L 376.974286 152.06 
L 328.348571 152.06 
z
" style="fill:#f1f1f2;"/>
    </g>
    <g id="text_29">
     <!-- True -->
     <g transform="translate(347.155464 169.591312)scale(0.11 -0.11)">
      <use xlink:href="#DejaVuSans-54"/>
      <use x="60.865234" xlink:href="#DejaVuSans-72"/>
      <use x="101.978516" xlink:href="#DejaVuSans-75"/>
      <use x="165.357422" xlink:href="#DejaVuSans-65"/>
     </g>
    </g>
    <g id="patch_31">
     <path d="M 376.974286 181.052 
L 449.514286 181.052 
L 449.514286 152.06 
L 376.974286 152.06 
z
" style="fill:#f1f1f2;"/>
    </g>
    <g id="text_30">
     <!-- False -->
     <g transform="translate(413.653411 169.591312)scale(0.11 -0.11)">
      <use xlink:href="#DejaVuSans-46"/>
      <use x="57.378906" xlink:href="#DejaVuSans-61"/>
      <use x="118.658203" xlink:href="#DejaVuSans-6c"/>
      <use x="146.441406" xlink:href="#DejaVuSans-73"/>
      <use x="198.541016" xlink:href="#DejaVuSans-65"/>
     </g>
    </g>
    <g id="patch_32">
     <path d="M 7.1 210.044 
L 191.24 210.044 
L 191.24 181.052 
L 7.1 181.052 
z
" style="fill:#ffffff;"/>
    </g>
    <g id="text_31">
     <!-- Queens county -->
     <defs>
      <path d="M 44.484375 -1.3125 
L 43.015625 -1.3125 
Q 25 -1.3125 14.984375 8.640625 
Q 4.984375 18.609375 4.984375 36.375 
Q 4.984375 54.109375 14.96875 64.15625 
Q 24.953125 74.21875 42.484375 74.21875 
Q 60.203125 74.21875 70.09375 64.25 
Q 79.984375 54.296875 79.984375 36.375 
Q 79.984375 24.078125 74.734375 15.1875 
Q 69.484375 6.296875 59.625 1.8125 
L 74.3125 -14.59375 
L 56.390625 -14.59375 
z
M 42.484375 60.59375 
Q 33.890625 60.59375 29.15625 54.25 
Q 24.421875 47.90625 24.421875 36.375 
Q 24.421875 24.65625 29.046875 18.421875 
Q 33.6875 12.203125 42.484375 12.203125 
Q 51.125 12.203125 55.859375 18.546875 
Q 60.59375 24.90625 60.59375 36.375 
Q 60.59375 47.90625 55.859375 54.25 
Q 51.125 60.59375 42.484375 60.59375 
z
" id="DejaVuSans-Bold-51"/>
     </defs>
     <g transform="translate(80.346938 198.497375)scale(0.11 -0.11)">
      <use xlink:href="#DejaVuSans-Bold-51"/>
      <use x="85.009766" xlink:href="#DejaVuSans-Bold-75"/>
      <use x="156.201172" xlink:href="#DejaVuSans-Bold-65"/>
      <use x="224.023438" xlink:href="#DejaVuSans-Bold-65"/>
      <use x="291.845703" xlink:href="#DejaVuSans-Bold-6e"/>
      <use x="363.037109" xlink:href="#DejaVuSans-Bold-73"/>
      <use x="422.558594" xlink:href="#DejaVuSans-Bold-20"/>
      <use x="457.373047" xlink:href="#DejaVuSans-Bold-63"/>
      <use x="516.650391" xlink:href="#DejaVuSans-Bold-6f"/>
      <use x="585.351562" xlink:href="#DejaVuSans-Bold-75"/>
      <use x="656.542969" xlink:href="#DejaVuSans-Bold-6e"/>
      <use x="727.734375" xlink:href="#DejaVuSans-Bold-74"/>
      <use x="775.537109" xlink:href="#DejaVuSans-Bold-79"/>
     </g>
    </g>
    <g id="patch_33">
     <path d="M 191.24 210.044 
L 263.78 210.044 
L 263.78 181.052 
L 191.24 181.052 
z
" style="fill:#ffffff;"/>
    </g>
    <g id="text_32">
     <!-- False -->
     <g transform="translate(227.919125 198.583312)scale(0.11 -0.11)">
      <use xlink:href="#DejaVuSans-46"/>
      <use x="57.378906" xlink:href="#DejaVuSans-61"/>
      <use x="118.658203" xlink:href="#DejaVuSans-6c"/>
      <use x="146.441406" xlink:href="#DejaVuSans-73"/>
      <use x="198.541016" xlink:href="#DejaVuSans-65"/>
     </g>
    </g>
    <g id="patch_34">
     <path d="M 263.78 210.044 
L 328.348571 210.044 
L 328.348571 181.052 
L 263.78 181.052 
z
" style="fill:#ffffff;"/>
    </g>
    <g id="text_33">
     <!-- False -->
     <g transform="translate(293.284839 198.583312)scale(0.11 -0.11)">
      <use xlink:href="#DejaVuSans-46"/>
      <use x="57.378906" xlink:href="#DejaVuSans-61"/>
      <use x="118.658203" xlink:href="#DejaVuSans-6c"/>
      <use x="146.441406" xlink:href="#DejaVuSans-73"/>
      <use x="198.541016" xlink:href="#DejaVuSans-65"/>
     </g>
    </g>
    <g id="patch_35">
     <path d="M 328.348571 210.044 
L 376.974286 210.044 
L 376.974286 181.052 
L 328.348571 181.052 
z
" style="fill:#ffffff;"/>
    </g>
    <g id="text_34">
     <!-- True -->
     <g transform="translate(347.155464 198.583312)scale(0.11 -0.11)">
      <use xlink:href="#DejaVuSans-54"/>
      <use x="60.865234" xlink:href="#DejaVuSans-72"/>
      <use x="101.978516" xlink:href="#DejaVuSans-75"/>
      <use x="165.357422" xlink:href="#DejaVuSans-65"/>
     </g>
    </g>
    <g id="patch_36">
     <path d="M 376.974286 210.044 
L 449.514286 210.044 
L 449.514286 181.052 
L 376.974286 181.052 
z
" style="fill:#ffffff;"/>
    </g>
    <g id="text_35">
     <!-- False -->
     <g transform="translate(413.653411 198.583312)scale(0.11 -0.11)">
      <use xlink:href="#DejaVuSans-46"/>
      <use x="57.378906" xlink:href="#DejaVuSans-61"/>
      <use x="118.658203" xlink:href="#DejaVuSans-6c"/>
      <use x="146.441406" xlink:href="#DejaVuSans-73"/>
      <use x="198.541016" xlink:href="#DejaVuSans-65"/>
     </g>
    </g>
    <g id="patch_37">
     <path d="M 7.1 239.036 
L 191.24 239.036 
L 191.24 210.044 
L 7.1 210.044 
z
" style="fill:#f1f1f2;"/>
    </g>
    <g id="text_36">
     <!-- Richmond county -->
     <defs>
      <path d="M 35.890625 40.578125 
Q 41.796875 40.578125 44.359375 42.765625 
Q 46.921875 44.96875 46.921875 50 
Q 46.921875 54.984375 44.359375 57.125 
Q 41.796875 59.28125 35.890625 59.28125 
L 27.984375 59.28125 
L 27.984375 40.578125 
z
M 27.984375 27.59375 
L 27.984375 0 
L 9.1875 0 
L 9.1875 72.90625 
L 37.890625 72.90625 
Q 52.296875 72.90625 59 68.0625 
Q 65.71875 63.234375 65.71875 52.78125 
Q 65.71875 45.5625 62.21875 40.921875 
Q 58.734375 36.28125 51.703125 34.078125 
Q 55.5625 33.203125 58.609375 30.09375 
Q 61.671875 27 64.796875 20.703125 
L 75 0 
L 54.984375 0 
L 46.09375 18.109375 
Q 43.40625 23.578125 40.640625 25.578125 
Q 37.890625 27.59375 33.296875 27.59375 
z
" id="DejaVuSans-Bold-52"/>
      <path d="M 63.375 33.296875 
L 63.375 0 
L 45.796875 0 
L 45.796875 5.421875 
L 45.796875 25.390625 
Q 45.796875 32.5625 45.484375 35.25 
Q 45.171875 37.9375 44.390625 39.203125 
Q 43.359375 40.921875 41.59375 41.875 
Q 39.84375 42.828125 37.59375 42.828125 
Q 32.125 42.828125 29 38.59375 
Q 25.875 34.375 25.875 26.90625 
L 25.875 0 
L 8.40625 0 
L 8.40625 75.984375 
L 25.875 75.984375 
L 25.875 46.6875 
Q 29.828125 51.46875 34.265625 53.734375 
Q 38.71875 56 44.09375 56 
Q 53.5625 56 58.46875 50.1875 
Q 63.375 44.390625 63.375 33.296875 
z
" id="DejaVuSans-Bold-68"/>
     </defs>
     <g transform="translate(65.512406 227.532344)scale(0.11 -0.11)">
      <use xlink:href="#DejaVuSans-Bold-52"/>
      <use x="77.001953" xlink:href="#DejaVuSans-Bold-69"/>
      <use x="111.279297" xlink:href="#DejaVuSans-Bold-63"/>
      <use x="170.556641" xlink:href="#DejaVuSans-Bold-68"/>
      <use x="241.748047" xlink:href="#DejaVuSans-Bold-6d"/>
      <use x="345.947266" xlink:href="#DejaVuSans-Bold-6f"/>
      <use x="414.648438" xlink:href="#DejaVuSans-Bold-6e"/>
      <use x="485.839844" xlink:href="#DejaVuSans-Bold-64"/>
      <use x="557.421875" xlink:href="#DejaVuSans-Bold-20"/>
      <use x="592.236328" xlink:href="#DejaVuSans-Bold-63"/>
      <use x="651.513672" xlink:href="#DejaVuSans-Bold-6f"/>
      <use x="720.214844" xlink:href="#DejaVuSans-Bold-75"/>
      <use x="791.40625" xlink:href="#DejaVuSans-Bold-6e"/>
      <use x="862.597656" xlink:href="#DejaVuSans-Bold-74"/>
      <use x="910.400391" xlink:href="#DejaVuSans-Bold-79"/>
     </g>
    </g>
    <g id="patch_38">
     <path d="M 191.24 239.036 
L 263.78 239.036 
L 263.78 210.044 
L 191.24 210.044 
z
" style="fill:#f1f1f2;"/>
    </g>
    <g id="text_37">
     <!-- False -->
     <g transform="translate(227.919125 227.575312)scale(0.11 -0.11)">
      <use xlink:href="#DejaVuSans-46"/>
      <use x="57.378906" xlink:href="#DejaVuSans-61"/>
      <use x="118.658203" xlink:href="#DejaVuSans-6c"/>
      <use x="146.441406" xlink:href="#DejaVuSans-73"/>
      <use x="198.541016" xlink:href="#DejaVuSans-65"/>
     </g>
    </g>
    <g id="patch_39">
     <path d="M 263.78 239.036 
L 328.348571 239.036 
L 328.348571 210.044 
L 263.78 210.044 
z
" style="fill:#f1f1f2;"/>
    </g>
    <g id="text_38">
     <!-- False -->
     <g transform="translate(293.284839 227.575312)scale(0.11 -0.11)">
      <use xlink:href="#DejaVuSans-46"/>
      <use x="57.378906" xlink:href="#DejaVuSans-61"/>
      <use x="118.658203" xlink:href="#DejaVuSans-6c"/>
      <use x="146.441406" xlink:href="#DejaVuSans-73"/>
      <use x="198.541016" xlink:href="#DejaVuSans-65"/>
     </g>
    </g>
    <g id="patch_40">
     <path d="M 328.348571 239.036 
L 376.974286 239.036 
L 376.974286 210.044 
L 328.348571 210.044 
z
" style="fill:#f1f1f2;"/>
    </g>
    <g id="text_39">
     <!-- True -->
     <g transform="translate(347.155464 227.575312)scale(0.11 -0.11)">
      <use xlink:href="#DejaVuSans-54"/>
      <use x="60.865234" xlink:href="#DejaVuSans-72"/>
      <use x="101.978516" xlink:href="#DejaVuSans-75"/>
      <use x="165.357422" xlink:href="#DejaVuSans-65"/>
     </g>
    </g>
    <g id="patch_41">
     <path d="M 376.974286 239.036 
L 449.514286 239.036 
L 449.514286 210.044 
L 376.974286 210.044 
z
" style="fill:#f1f1f2;"/>
    </g>
    <g id="text_40">
     <!-- False -->
     <g transform="translate(413.653411 227.575312)scale(0.11 -0.11)">
      <use xlink:href="#DejaVuSans-46"/>
      <use x="57.378906" xlink:href="#DejaVuSans-61"/>
      <use x="118.658203" xlink:href="#DejaVuSans-6c"/>
      <use x="146.441406" xlink:href="#DejaVuSans-73"/>
      <use x="198.541016" xlink:href="#DejaVuSans-65"/>
     </g>
    </g>
    <g id="patch_42">
     <path d="M 7.1 268.028 
L 191.24 268.028 
L 191.24 239.036 
L 7.1 239.036 
z
" style="fill:#ffffff;"/>
    </g>
    <g id="text_41">
     <!-- Boston -->
     <g transform="translate(129.69225 256.567312)scale(0.11 -0.11)">
      <use xlink:href="#DejaVuSans-Bold-42"/>
      <use x="76.220703" xlink:href="#DejaVuSans-Bold-6f"/>
      <use x="144.921875" xlink:href="#DejaVuSans-Bold-73"/>
      <use x="204.443359" xlink:href="#DejaVuSans-Bold-74"/>
      <use x="252.246094" xlink:href="#DejaVuSans-Bold-6f"/>
      <use x="320.947266" xlink:href="#DejaVuSans-Bold-6e"/>
     </g>
    </g>
    <g id="patch_43">
     <path d="M 191.24 268.028 
L 263.78 268.028 
L 263.78 239.036 
L 191.24 239.036 
z
" style="fill:#ffffff;"/>
    </g>
    <g id="text_42">
     <!-- False -->
     <g transform="translate(227.919125 256.567312)scale(0.11 -0.11)">
      <use xlink:href="#DejaVuSans-46"/>
      <use x="57.378906" xlink:href="#DejaVuSans-61"/>
      <use x="118.658203" xlink:href="#DejaVuSans-6c"/>
      <use x="146.441406" xlink:href="#DejaVuSans-73"/>
      <use x="198.541016" xlink:href="#DejaVuSans-65"/>
     </g>
    </g>
    <g id="patch_44">
     <path d="M 263.78 268.028 
L 328.348571 268.028 
L 328.348571 239.036 
L 263.78 239.036 
z
" style="fill:#ffffff;"/>
    </g>
    <g id="text_43">
     <!-- False -->
     <g transform="translate(293.284839 256.567312)scale(0.11 -0.11)">
      <use xlink:href="#DejaVuSans-46"/>
      <use x="57.378906" xlink:href="#DejaVuSans-61"/>
      <use x="118.658203" xlink:href="#DejaVuSans-6c"/>
      <use x="146.441406" xlink:href="#DejaVuSans-73"/>
      <use x="198.541016" xlink:href="#DejaVuSans-65"/>
     </g>
    </g>
    <g id="patch_45">
     <path d="M 328.348571 268.028 
L 376.974286 268.028 
L 376.974286 239.036 
L 328.348571 239.036 
z
" style="fill:#ffffff;"/>
    </g>
    <g id="text_44">
     <!-- True -->
     <g transform="translate(347.155464 256.567312)scale(0.11 -0.11)">
      <use xlink:href="#DejaVuSans-54"/>
      <use x="60.865234" xlink:href="#DejaVuSans-72"/>
      <use x="101.978516" xlink:href="#DejaVuSans-75"/>
      <use x="165.357422" xlink:href="#DejaVuSans-65"/>
     </g>
    </g>
    <g id="patch_46">
     <path d="M 376.974286 268.028 
L 449.514286 268.028 
L 449.514286 239.036 
L 376.974286 239.036 
z
" style="fill:#ffffff;"/>
    </g>
    <g id="text_45">
     <!-- False -->
     <g transform="translate(413.653411 256.567312)scale(0.11 -0.11)">
      <use xlink:href="#DejaVuSans-46"/>
      <use x="57.378906" xlink:href="#DejaVuSans-61"/>
      <use x="118.658203" xlink:href="#DejaVuSans-6c"/>
      <use x="146.441406" xlink:href="#DejaVuSans-73"/>
      <use x="198.541016" xlink:href="#DejaVuSans-65"/>
     </g>
    </g>
   </g>
  </g>
 </g>
</svg>
